<svg width="937" height="194" viewBox="0 0 937 194" fill="none" xmlns="http://www.w3.org/2000/svg">
<path d="M242 150.404C239.791 150.404 238 148.613 238 146.404V51.8583C238 49.6492 239.791 47.8583 242 47.8583H278.457C286.235 47.8583 292.861 49.3438 298.336 52.3146C303.81 55.2521 307.983 59.3413 310.853 64.582C313.757 69.7894 315.21 75.7979 315.21 82.6076C315.21 89.4173 313.741 95.4258 310.803 100.633C307.866 105.841 303.61 109.896 298.035 112.8C292.494 115.705 285.784 117.157 277.907 117.157H256.12C253.911 117.157 252.12 115.366 252.12 113.157V103.782C252.12 101.573 253.911 99.782 256.12 99.782H274.402C278.574 99.782 282.012 99.0643 284.716 97.6289C287.453 96.1602 289.49 94.1406 290.825 91.5703C292.194 88.9666 292.878 85.9791 292.878 82.6076C292.878 79.2028 292.194 76.2319 290.825 73.695C289.49 71.1246 287.453 69.1385 284.716 67.7365C281.979 66.3011 278.507 65.5835 274.301 65.5835H263.681C261.472 65.5835 259.681 67.3743 259.681 69.5835V146.404C259.681 148.613 257.89 150.404 255.681 150.404H242Z" fill="#0F172A"/>
<path d="M330.071 150.404C327.862 150.404 326.071 148.613 326.071 146.404V77.4947C326.071 75.2855 327.862 73.4947 330.071 73.4947H342.751C344.96 73.4947 346.751 75.2855 346.751 77.4947V86.4555C346.751 86.7086 346.956 86.9137 347.209 86.9137V86.9137C347.412 86.9137 347.591 86.7792 347.651 86.5848C349.063 81.9743 351.384 78.4789 354.612 76.0984C357.917 73.6282 361.722 72.3931 366.028 72.3931C367.096 72.3931 368.248 72.4599 369.483 72.5934C369.543 72.5999 369.603 72.6065 369.662 72.6133C371.486 72.8201 372.738 74.4318 372.738 76.2673V87.8345C372.738 89.946 370.675 91.5464 368.582 91.2699V91.2699C366.813 91.0362 365.194 90.9194 363.725 90.9194C360.587 90.9194 357.783 91.6037 355.313 92.9723C352.876 94.3075 350.94 96.1769 349.505 98.5803C348.103 100.984 347.402 103.754 347.402 106.892V146.404C347.402 148.613 345.611 150.404 343.402 150.404H330.071Z" fill="#0F172A"/>
<path d="M400.674 151.856C395.767 151.856 391.394 151.005 387.555 149.302C383.716 147.566 380.679 145.013 378.442 141.641C376.239 138.237 375.138 133.997 375.138 128.923C375.138 124.651 375.922 121.062 377.491 118.158C379.06 115.254 381.196 112.917 383.9 111.148C386.604 109.379 389.675 108.044 393.113 107.142C396.585 106.241 400.223 105.607 404.029 105.24C408.502 104.772 412.107 104.338 414.844 103.938C417.581 103.504 419.567 102.87 420.802 102.035C422.037 101.201 422.655 99.9656 422.655 98.3299V98.0295C422.655 94.8583 421.654 92.4048 419.651 90.669C417.681 88.9332 414.877 88.0653 411.239 88.0653C407.4 88.0653 404.346 88.9166 402.076 90.619C400.761 91.5859 399.703 92.6985 398.904 93.9568C397.884 95.5618 396.207 96.8173 394.312 96.6634L382.384 95.6946C379.976 95.4991 378.265 93.2138 379.129 90.9586C380.229 88.087 381.77 85.5036 383.75 83.2085C386.687 79.7702 390.476 77.1332 395.116 75.2972C399.789 73.4279 405.197 72.4933 411.339 72.4933C415.612 72.4933 419.701 72.994 423.606 73.9954C427.545 74.9968 431.033 76.549 434.071 78.652C437.142 80.755 439.562 83.4588 441.331 86.7635C443.101 90.0348 443.985 93.957 443.985 98.5302V146.404C443.985 148.613 442.194 150.404 439.985 150.404H427.756C425.547 150.404 423.756 148.613 423.756 146.404V140.112C423.756 139.906 423.589 139.739 423.383 139.739V139.739C423.244 139.739 423.116 139.817 423.05 139.941C421.827 142.261 420.21 144.313 418.199 146.098C416.129 147.9 413.642 149.319 410.738 150.354C407.834 151.355 404.479 151.856 400.674 151.856ZM406.782 137.135C409.92 137.135 412.691 136.517 415.094 135.282C417.498 134.014 419.384 132.311 420.752 130.175C422.121 128.039 422.805 125.619 422.805 122.915V117.767C422.805 116.469 421.289 115.566 420.051 115.955V115.955C418.916 116.289 417.631 116.606 416.196 116.906C414.76 117.173 413.325 117.424 411.89 117.657C410.454 117.858 409.152 118.041 407.984 118.208C405.481 118.575 403.294 119.159 401.425 119.961C399.555 120.762 398.103 121.847 397.069 123.215C396.034 124.55 395.516 126.219 395.516 128.222C395.516 131.126 396.568 133.346 398.671 134.882C400.807 136.384 403.511 137.135 406.782 137.135Z" fill="#0F172A"/>
<path d="M461.714 150.404C459.504 150.404 457.714 148.613 457.714 146.404V77.4947C457.714 75.2855 459.504 73.4947 461.714 73.4947H475.044C477.253 73.4947 479.044 75.2855 479.044 77.4947V146.404C479.044 148.613 477.253 150.404 475.044 150.404H461.714ZM468.429 63.5806C465.258 63.5806 462.537 62.5291 460.267 60.4261C458.031 58.2898 456.913 55.7362 456.913 52.7653C456.913 49.8278 458.031 47.3075 460.267 45.2046C462.537 43.0682 465.258 42 468.429 42C471.6 42 474.304 43.0682 476.54 45.2046C478.81 47.3075 479.945 49.8278 479.945 52.7653C479.945 55.7362 478.81 58.2898 476.54 60.4261C474.304 62.5291 471.6 63.5806 468.429 63.5806Z" fill="#0F172A"/>
<path d="M556.423 91.2307C557.077 93.4556 555.335 95.5468 553.02 95.6893L541.257 96.4131C539.261 96.5359 537.555 95.1006 536.521 93.3887C536.257 92.9507 535.956 92.5281 535.621 92.1211C534.519 90.7525 533.067 89.6676 531.264 88.8665C529.495 88.032 527.376 87.6147 524.905 87.6147C521.601 87.6147 518.813 88.3157 516.544 89.7177C514.274 91.0863 513.139 92.9222 513.139 95.2255C513.139 97.0614 513.873 98.6136 515.342 99.8821C516.811 101.151 519.331 102.169 522.903 102.936L536.822 105.74C544.3 107.276 549.874 109.746 553.546 113.151C557.218 116.556 559.054 121.029 559.054 126.57C559.054 131.61 557.568 136.033 554.598 139.839C551.66 143.644 547.621 146.615 542.48 148.751C537.373 150.854 531.481 151.906 524.805 151.906C514.624 151.906 506.513 149.786 500.471 145.547C495.676 142.137 492.465 137.75 490.837 132.384C490.156 130.138 491.922 128.016 494.266 127.893L507.446 127.201C509.423 127.097 511.096 128.508 512.011 130.264C512.828 131.833 513.989 133.121 515.492 134.131C517.929 135.733 521.05 136.534 524.855 136.534C528.594 136.534 531.598 135.816 533.868 134.381C536.171 132.912 537.34 131.026 537.373 128.723C537.34 126.787 536.522 125.201 534.92 123.966C533.317 122.698 530.847 121.73 527.509 121.062L514.19 118.408C506.68 116.906 501.088 114.303 497.416 110.597C493.778 106.892 491.959 102.169 491.959 96.4272C491.959 91.4869 493.294 87.2308 495.964 83.6591C498.668 80.0874 502.457 77.3335 507.331 75.3974C512.237 73.4613 517.979 72.4933 524.555 72.4933C534.269 72.4933 541.913 74.5462 547.487 78.652C551.937 81.9097 554.916 86.1026 556.423 91.2307Z" fill="#0F172A"/>
<path d="M604.715 151.906C596.804 151.906 589.994 150.304 584.286 147.099C578.611 143.861 574.239 139.288 571.168 133.38C568.097 127.438 566.561 120.411 566.561 112.3C566.561 104.389 568.097 97.4453 571.168 91.4702C574.239 85.495 578.561 80.8384 584.136 77.5004C589.744 74.1623 596.32 72.4933 603.864 72.4933C608.938 72.4933 613.661 73.3111 618.034 74.9467C622.44 76.549 626.279 78.9691 629.55 82.207C632.855 85.445 635.425 89.5174 637.261 94.4244C639.097 99.2979 640.015 105.006 640.015 111.549V113.407C640.015 115.616 638.224 117.407 636.015 117.407H579.073C576.864 117.407 575.073 115.616 575.073 113.407V108.188C575.073 105.979 576.864 104.188 579.073 104.188H615.937C618.146 104.188 619.999 102.375 619.523 100.217C619.192 98.7162 618.662 97.3193 617.934 96.0266C616.599 93.6566 614.746 91.804 612.376 90.4688C610.039 89.1001 607.319 88.4158 604.214 88.4158C600.977 88.4158 598.106 89.1669 595.602 90.669C593.132 92.1378 591.196 94.1239 589.794 96.6275C588.392 99.0977 587.674 101.852 587.641 104.889V117.457C587.641 121.262 588.342 124.55 589.744 127.321C591.179 130.092 593.199 132.228 595.803 133.73C598.406 135.232 601.494 135.983 605.066 135.983C607.436 135.983 609.605 135.65 611.575 134.982C613.544 134.314 615.23 133.313 616.632 131.978C617.344 131.299 617.97 130.544 618.51 129.711C619.466 128.235 621.035 127.15 622.79 127.266L634.961 128.069C637.39 128.229 639.138 130.522 638.259 132.793C637.122 135.733 635.504 138.399 633.406 140.79C630.335 144.295 626.363 147.032 621.489 149.002C616.649 150.938 611.057 151.906 604.715 151.906Z" fill="#0F172A"/>
<path d="M655.516 150.404C653.306 150.404 651.516 148.613 651.516 146.404V51.8583C651.516 49.6492 653.306 47.8583 655.516 47.8583H669.196C671.405 47.8583 673.196 49.6492 673.196 51.8583V86.1683C673.196 88.3775 674.987 90.1683 677.196 90.1683H713.209C715.418 90.1683 717.209 88.3775 717.209 86.1683V51.8583C717.209 49.6492 719 47.8583 721.209 47.8583H734.839C737.049 47.8583 738.839 49.6492 738.839 51.8583V146.404C738.839 148.613 737.049 150.404 734.839 150.404H721.209C719 150.404 717.209 148.613 717.209 146.404V112.044C717.209 109.835 715.418 108.044 713.209 108.044H677.196C674.987 108.044 673.196 109.835 673.196 112.044V146.404C673.196 148.613 671.405 150.404 669.196 150.404H655.516Z" fill="#0F172A"/>
<path d="M757.494 150.404C755.285 150.404 753.494 148.613 753.494 146.404V77.4947C753.494 75.2855 755.285 73.4947 757.494 73.4947H770.824C773.034 73.4947 774.824 75.2855 774.824 77.4947V146.404C774.824 148.613 773.034 150.404 770.824 150.404H757.494ZM764.209 63.5806C761.038 63.5806 758.318 62.5291 756.048 60.4261C753.811 58.2898 752.693 55.7362 752.693 52.7653C752.693 49.8278 753.811 47.3075 756.048 45.2046C758.318 43.0682 761.038 42 764.209 42C767.381 42 770.084 43.0682 772.321 45.2046C774.591 47.3075 775.726 49.8278 775.726 52.7653C775.726 55.7362 774.591 58.2898 772.321 60.4261C770.084 62.5291 767.381 63.5806 764.209 63.5806Z" fill="#0F172A"/>
<path d="M855.157 73.4947C857.912 73.4947 859.842 76.2143 858.933 78.8148L834.842 147.724C834.281 149.329 832.766 150.404 831.066 150.404H812.71C811.009 150.404 809.495 149.329 808.934 147.724L784.842 78.8148C783.933 76.2143 785.864 73.4947 788.618 73.4947H802.51C804.29 73.4947 805.856 74.6705 806.352 76.3796L821.376 128.138C821.442 128.366 821.65 128.523 821.888 128.523V128.523C822.125 128.523 822.334 128.366 822.4 128.138L837.375 76.3829C837.87 74.6721 839.437 73.4947 841.218 73.4947H855.157Z" fill="#0F172A"/>
<path d="M901.46 151.906C893.548 151.906 886.739 150.304 881.031 147.099C875.356 143.861 870.983 139.288 867.912 133.38C864.841 127.438 863.305 120.411 863.305 112.3C863.305 104.389 864.841 97.4453 867.912 91.4702C870.983 85.495 875.306 80.8384 880.88 77.5004C886.488 74.1623 893.064 72.4933 900.608 72.4933C905.682 72.4933 910.406 73.3111 914.778 74.9467C919.185 76.549 923.023 78.9691 926.295 82.207C929.599 85.445 932.17 89.5174 934.006 94.4244C935.842 99.2979 936.76 105.006 936.76 111.549V113.407C936.76 115.616 934.969 117.407 932.76 117.407H875.818C873.608 117.407 871.818 115.616 871.818 113.407V108.188C871.818 105.979 873.608 104.188 875.818 104.188H912.681C914.89 104.188 916.743 102.375 916.267 100.217C915.936 98.7162 915.407 97.3193 914.678 96.0266C913.343 93.6566 911.49 91.804 909.12 90.4688C906.784 89.1001 904.063 88.4158 900.959 88.4158C897.721 88.4158 894.85 89.1669 892.347 90.669C889.876 92.1378 887.94 94.1239 886.538 96.6275C885.136 99.0977 884.419 101.852 884.385 104.889V117.457C884.385 121.262 885.086 124.55 886.488 127.321C887.924 130.092 889.943 132.228 892.547 133.73C895.151 135.232 898.238 135.983 901.81 135.983C904.18 135.983 906.35 135.65 908.319 134.982C910.289 134.314 911.974 133.313 913.376 131.978C914.089 131.299 914.715 130.544 915.254 129.711C916.211 128.235 917.78 127.15 919.535 127.266L931.705 128.069C934.135 128.229 935.882 130.522 935.004 132.793C933.866 135.733 932.248 138.399 930.15 140.79C927.079 144.295 923.107 147.032 918.233 149.002C913.393 150.938 907.802 151.906 901.46 151.906Z" fill="#0F172A"/>
<path fill-rule="evenodd" clip-rule="evenodd" d="M102.651 3.92614C93.58 -1.30786 82.407 -1.30877 73.3356 3.92375L14.6717 37.7683C5.59316 43.0069 0 52.6919 0 63.1734V130.827C0 141.308 5.59316 150.993 14.6717 156.232L73.3356 190.076C82.407 195.309 93.58 195.308 102.651 190.074L161.312 156.231C170.393 150.993 175.988 141.307 175.988 130.823V63.1766C175.988 52.6934 170.393 43.0071 161.312 37.7691L102.651 3.92614ZM85.1099 49.8471C87.0055 48.9409 89.2077 48.9409 91.1033 49.8471C92.742 50.6304 93.6455 51.9906 94.1011 52.7368C94.5722 53.5082 95.0558 54.4911 95.5271 55.4489L103.02 70.6682C103.94 72.5368 104.4 73.4711 105.073 74.1966C105.668 74.839 106.383 75.3596 107.178 75.7295C108.075 76.1473 109.105 76.2983 111.166 76.6003L127.918 79.0553L127.918 79.0554C128.972 79.2095 130.053 79.3678 130.93 79.5792C131.778 79.7837 133.347 80.2261 134.595 81.5472C136.039 83.0755 136.718 85.1755 136.443 87.2626C136.206 89.0668 135.194 90.3478 134.627 91.0126C134.041 91.6997 133.258 92.4639 132.495 93.2086L120.371 105.048C118.883 106.502 118.139 107.228 117.659 108.092C117.234 108.857 116.961 109.697 116.856 110.566C116.737 111.547 116.912 112.572 117.263 114.623L120.125 131.352C120.305 132.405 120.49 133.485 120.561 134.387C120.63 135.259 120.697 136.893 119.83 138.492C118.828 140.343 117.046 141.641 114.981 142.025C113.195 142.356 111.667 141.788 110.861 141.453C110.027 141.106 109.06 140.596 108.117 140.098L108.117 140.098L93.1578 132.211L93.1577 132.21C91.3098 131.236 90.3858 130.749 89.4121 130.558C88.55 130.388 87.6632 130.388 86.801 130.558C85.8274 130.749 84.9034 131.236 83.0555 132.21L83.0553 132.211L68.0965 140.098L68.0962 140.098C67.1532 140.596 66.1858 141.106 65.3525 141.453C64.5464 141.788 63.0179 142.356 61.2326 142.025C59.1675 141.641 57.3855 140.343 56.3831 138.492C55.5164 136.893 55.583 135.259 55.6519 134.387C55.7231 133.485 55.9081 132.405 56.0885 131.352L58.9502 114.623C59.3009 112.572 59.4763 111.547 59.3574 110.566C59.2521 109.697 58.9794 108.857 58.5542 108.092C58.0741 107.228 57.33 106.502 55.8419 105.048L43.7183 93.2088C42.9553 92.464 42.1725 91.6998 41.5861 91.0126C41.0188 90.3478 40.0076 89.0668 39.77 87.2626C39.4951 85.1755 40.1742 83.0755 41.6183 81.5472C42.8666 80.2261 44.4352 79.7837 45.2835 79.5792C46.1605 79.3677 47.2416 79.2095 48.2953 79.0553L65.0474 76.6003C67.1081 76.2983 68.1385 76.1473 69.0356 75.7295C69.8298 75.3596 70.5447 74.839 71.1406 74.1966C71.8135 73.4711 72.2735 72.5368 73.1934 70.6683L73.1934 70.6682L80.6862 55.4486C81.1575 54.4908 81.641 53.5081 82.112 52.7368C82.5677 51.9906 83.4712 50.6304 85.1099 49.8471Z" fill="#444CE7"/>
</svg>
